<svg width="86" height="84" viewBox="0 0 86 84" fill="none" xmlns="http://www.w3.org/2000/svg">
<mask id="path-1-inside-1_3303_468" fill="white">
<rect width="86" height="53" rx="6"/>
</mask>
<rect width="86" height="53" rx="6" stroke="#1BAE9C" stroke-width="18" mask="url(#path-1-inside-1_3303_468)"/>
<rect x="4" y="4" width="78" height="45" rx="4" stroke="#148D81" stroke-width="4"/>
<rect x="17" y="21" width="51" height="7" rx="2" fill="#1BAE9C"/>
<path d="M16.5599 66H3.13448C2.16928 74 6.61463 75.5 9.6048 77.5C18.1048 74.5 17.1048 68 16.5599 66Z" stroke="#20A091" stroke-width="4" stroke-linecap="round"/>
<path d="M82.5599 66H69.1345C68.1693 74 72.6146 75.5 75.6048 77.5C84.1048 74.5 83.1048 68 82.5599 66Z" stroke="#20A091" stroke-width="4" stroke-linecap="round"/>
<path d="M16.7949 66C17.0295 67.2662 17.1823 69.219 16.5488 71.2451C15.817 73.5858 14.0017 76.1492 9.72656 77.876C9.4158 77.6668 9.1005 77.4602 8.78906 77.2588C8.32 76.9554 7.85865 76.6567 7.4043 76.3369C6.49804 75.6991 5.65599 75.0016 4.9541 74.1172C3.67539 72.5058 2.74391 70.1222 3.06348 66H16.7949Z" stroke="#148D81" stroke-width="2" stroke-linecap="round"/>
<path d="M82.7949 66C83.0295 67.2662 83.1823 69.219 82.5488 71.2451C81.817 73.5858 80.0017 76.1492 75.7266 77.876C75.4158 77.6668 75.1005 77.4602 74.7891 77.2588C74.32 76.9554 73.8586 76.6567 73.4043 76.3369C72.498 75.6991 71.656 75.0016 70.9541 74.1172C69.6754 72.5058 68.7439 70.1222 69.0635 66H82.7949Z" stroke="#148D81" stroke-width="2" stroke-linecap="round"/>
<path d="M35.6631 75L37.6055 78.5625C37.3585 78.4603 37.1085 78.3591 36.8584 78.2549C34.9932 77.4777 33.0844 76.662 31.5273 75.9521C30.7476 75.5967 30.0749 75.2756 29.5479 75.0059C29.5443 75.004 29.5407 75.0018 29.5371 75H35.6631Z" stroke="#20A091" stroke-width="5" stroke-linecap="round"/>
<path d="M50.2207 75L48.5195 78.7422C48.7363 78.6485 48.9557 78.555 49.1758 78.459C50.8792 77.7159 52.6368 76.9199 54.1104 76.1943C55.0836 75.7151 55.8414 75.3103 56.3643 75H50.2207Z" stroke="#20A091" stroke-width="5" stroke-linecap="round"/>
<path d="M43.6328 60V67.5H42.1328V60H43.6328Z" stroke="#20A091" stroke-width="2" stroke-linecap="round"/>
<circle cx="43.1328" cy="75.5" r="5.5" stroke="#20A091" stroke-width="5"/>
<rect x="19" y="23" width="47" height="3" rx="1.5" fill="#148D81"/>
</svg>
